<?xml version="1.0" encoding="UTF-8" standalone="no"?>
<svg
   height="97"
   width="195"
   version="1.1"
   id="svg147"
   sodipodi:docname="hat_tmp.svg"
   inkscape:version="1.2.1 (9c6d41e4, 2022-07-14)"
   xmlns:inkscape="http://www.inkscape.org/namespaces/inkscape"
   xmlns:sodipodi="http://sodipodi.sourceforge.net/DTD/sodipodi-0.dtd"
   xmlns:xlink="http://www.w3.org/1999/xlink"
   xmlns="http://www.w3.org/2000/svg"
   xmlns:svg="http://www.w3.org/2000/svg">
  <sodipodi:namedview
     id="namedview149"
     pagecolor="#ffffff"
     bordercolor="#666666"
     borderopacity="1.0"
     inkscape:showpageshadow="2"
     inkscape:pageopacity="0.0"
     inkscape:pagecheckerboard="0"
     inkscape:deskcolor="#d1d1d1"
     showgrid="false"
     inkscape:zoom="3.3872969"
     inkscape:cx="101.55591"
     inkscape:cy="56.091925"
     inkscape:window-width="1338"
     inkscape:window-height="784"
     inkscape:window-x="51"
     inkscape:window-y="46"
     inkscape:window-maximized="0"
     inkscape:current-layer="svg147"
     inkscape:document-units="cm" />
  <g
     transform="translate(105.9275,353.05)"
     id="g134">
    <use
       height="94.599998"
       transform="translate(-103.75,-351.85)"
       width="190.64999"
       xlink:href="#shape0"
       id="use132" />
  </g>
  <defs
     id="defs145">
    <g
       id="shape0"
       transform="translate(103.75,351.85)">
      <path
         d="m 86.85,-312.15 q 0.15,5.85 -0.2,10.4 -0.5,6.95 -2.1,10.6 l 0.05,0.65 q 0,2.9 -2.9,6.1 v 0.4 q 0,0.75 -0.6,1 l -1.05,0.15 -1.4,1.2 q -7.95,6.3 -24.15,11.15 -44.85,13.45 -139.25,12.3 -2.2,0.95 -2.25,0.95 -1.5,0 -2.05,-0.35 l -1.45,-0.9 q -0.25,0.25 -0.25,-2.25 v -0.15 q -6.2,-3.15 -10,-21 -1.45,-6.85 -2.35,-15 l -0.65,-7 q 0,-9.15 0.95,-12.7 2.45,-9.15 11.55,-15.85 26.2,-19.3 107.1,-19.3 l 26.15,-0.1 q 14.2,0.25 22.65,2.6 21.95,6.05 21.95,31.35 l 0.25,5.75 m -50.05,-13.2 -0.2,0.85 q 0,2.3 -6.45,12 -2.95,4.4 -5.15,6.95 3.6,4.7 8.75,14.85 l 7.1,-0.05 32.8,1.45 2.5,-1.85 -0.05,-1.85 q 3,-22.9 3,-25.15 l 1.9,-6 q 1.15,-5 -2.1,-8.6 -10.15,-11 -63.05,-11 l -18.15,0.25 q 4.55,5.55 10.75,16.05 5.55,-1.3 16.9,-1.3 8.65,0 10.8,2 0.65,0.6 0.65,1.4 m -74.25,18.4 q 2.05,1.3 11,5.1 3.4,1.5 4.6,3.25 1.2,1.2 1.3,3.85 0.1,2.6 -0.7,6.75 l 7.45,-5.6 4.2,-3.05 0.1,-0.85 1.1,-0.6 q 0.95,-0.65 2.4,-0.65 h 0.95 0.2 l 3,-0.05 12.45,3.55 8.5,3.25 4.75,-0.25 -4.15,-6.4 q -2.25,-3.3 -3.1,-5.1 l -0.45,-1.2 -0.05,-0.45 v -0.2 -0.15 l 0.1,-0.8 0.3,-1.2 q 0.8,-2.35 3.35,-5.75 3.45,-4.6 7,-7.25 l -10.65,0.75 -6.35,0.75 -2.1,-0.05 -0.9,0.05 q -0.3,0 -0.8,-0.3 -2,-0.4 -2.7,-1.3 -0.2,-0.3 -0.25,-1.4 l -4.25,-5.1 q -4.9,-6.25 -8.6,-11.9 -8.2,16.6 -11.7,20.1 -0.7,2.15 -3.75,3.8 -7.65,4.2 -11.8,7.6 l -0.5,0.75 0.05,0.05 m 102.15,24.15 -77.7,2.55 -5.7,0.9 q -4.6,3.1 -5.8,3.1 -1.8,0 -2.85,-1.45 l -19.4,3.95 q -5.85,1.15 -23.55,8.95 l -4.95,2.25 q 35.05,0.2 97.1,-4.2 9.8,-0.7 15.75,-3.5 7.65,-3.65 14.5,-5 2.5,-0.45 12.6,-7.55 m -86.15,-54.7 2.9,-5.2 q -47.6,3.1 -66.2,15.75 -8.45,5.75 -10.7,13.45 -0.8,2.8 -0.8,10.25 0,10.65 6,25 l 4.15,9.15 0.85,1.9 q 2.2,-1.45 5.35,-3 10.3,-5.05 27.3,-9.65 12.15,-3.35 23.85,-5.6 V -288 l -0.05,-5.3 q -3.35,-1.5 -8.7,-4.95 -9.25,-6 -9.25,-7.9 0,-1.95 8.75,-10.1 7.45,-6.9 11.4,-8.2 0.65,-3.9 5.15,-13.05 m 18.2,48.05 -1.4,-0.8 -1.5,1.4 3.35,-0.35 -0.45,-0.25"
         fill="#000000"
         fill-rule="evenodd"
         stroke="none"
         id="path136" />
      <path
         d="m 36.8,-325.35 q 0,-0.8 -0.65,-1.4 -2.15,-2 -10.8,-2 -11.35,0 -16.9,1.3 -6.2,-10.5 -10.75,-16.05 l 18.15,-0.25 q 52.9,0 63.05,11 3.25,3.6 2.1,8.6 l -1.9,6 q 0,2.25 -3,25.15 l 0.05,1.85 -2.5,1.85 -32.8,-1.45 -7.1,0.05 q -5.15,-10.15 -8.75,-14.85 2.2,-2.55 5.15,-6.95 6.45,-9.7 6.45,-12 l 0.2,-0.85 m -73.8,17.6 -0.45,0.8 -0.05,-0.05 0.5,-0.75 m 33.75,18.3 0.45,0.25 -3.35,0.35 1.5,-1.4 1.4,0.8 m -18.2,-48.05 q -4.5,9.15 -5.15,13.05 -3.95,1.3 -11.4,8.2 -8.75,8.15 -8.75,10.1 0,1.9 9.25,7.9 5.35,3.45 8.7,4.95 l 0.05,5.3 v 2.55 q -11.7,2.25 -23.85,5.6 -17,4.6 -27.3,9.65 -3.15,1.55 -5.35,3 l -0.85,-1.9 -4.15,-9.15 q -6,-14.35 -6,-25 0,-7.45 0.8,-10.25 2.25,-7.7 10.7,-13.45 18.6,-12.65 66.2,-15.75 l -2.9,5.2"
         fill="#90a446"
         fill-rule="evenodd"
         stroke="none"
         id="path138" />
      <path
         d="m -37,-307.75 q 4.15,-3.4 11.8,-7.6 3.05,-1.65 3.75,-3.8 3.5,-3.5 11.7,-20.1 3.7,5.65 8.6,11.9 l 4.25,5.1 q 0.05,1.1 0.25,1.4 0.7,0.9 2.7,1.3 0.5,0.3 0.8,0.3 l 0.9,-0.05 2.1,0.05 6.35,-0.75 10.65,-0.75 q -3.55,2.65 -7,7.25 -2.55,3.4 -3.35,5.75 l -0.3,1.2 -0.1,0.8 v 0.15 0.2 l 0.05,0.45 0.45,1.2 q 0.85,1.8 3.1,5.1 l 4.15,6.4 -4.75,0.25 -8.5,-3.25 -12.45,-3.55 -3,0.05 H -5.05 -6 q -1.45,0 -2.4,0.65 l -1.1,0.6 -0.1,0.85 -4.2,3.05 -7.45,5.6 q 0.8,-4.15 0.7,-6.75 -0.1,-2.65 -1.3,-3.85 -1.2,-1.75 -4.6,-3.25 -8.95,-3.8 -11,-5.1 l 0.45,-0.8"
         fill="#fcde8b"
         fill-rule="evenodd"
         stroke="none"
         id="path140" />
      <path
         d="m 64.7,-282.8 q -10.1,7.1 -12.6,7.55 -6.85,1.35 -14.5,5 -5.95,2.8 -15.75,3.5 -62.05,4.4 -97.1,4.2 l 4.95,-2.25 q 17.7,-7.8 23.55,-8.95 l 19.4,-3.95 q 1.05,1.45 2.85,1.45 1.2,0 5.8,-3.1 l 5.7,-0.9 77.7,-2.55"
         fill="#65731e"
         fill-rule="evenodd"
         stroke="none"
         id="path142" />
    </g>
  </defs>
</svg>
